<svg width="855px" height="744px" viewBox="0 0 855 744" version="1.1" xmlns="http://www.w3.org/2000/svg" xmlns:xlink="http://www.w3.org/1999/xlink">
    <g id="页面-1" stroke="none" stroke-width="1" fill="none" fill-rule="evenodd">
        <path d="M507,742 L338,742 L338,614 L0,614 L0,447 L270,0 L470,0 L200.302,447 L345,447 L345,373 L345.04848,372.999201 C347.724512,248.879475 460.845482,149 600,149 C739.154518,149 852.275488,248.879475 854.95152,372.999201 L855,373 L855,545 L852.894331,545.001021 C836.745325,657.262814 729.67667,744 600,744 C584.994657,744 570.292026,742.838622 555.997947,740.610707 L556.000245,580.934334 C569.099697,589.270317 584.082872,594 600,594 C646.878901,594 685.656574,552.974166 692.069387,499.621421 L692.253783,498.000927 L693,498 L693,415 L692.966071,414.999524 C691.621999,355.635355 650.514192,308 600,308 C549.990949,308 509.201098,354.687411 507.08615,413.222154 L507.033929,414.999524 L507,415 L507,742 Z" id="形状结合" fill="#000000"></path>
    </g>
</svg>